<svg width="310" height="262" viewBox="0 0 310 262" fill="none" xmlns="http://www.w3.org/2000/svg">
<path d="M0 2.29712C0 1.19255 0.895431 0.297119 2 0.297119H310V262H0V2.29712Z" fill="#F5F5F5"/>
<path d="M0 2C0 0.89543 0.895431 0 2 0H310V13H0V2Z" fill="#C4C4C4"/>
<circle cx="12.5" cy="6.5" r="3.5" fill="#E87777"/>
<circle cx="22.5" cy="6.5" r="3.5" fill="#E0E270"/>
<circle cx="32.5" cy="6.5" r="3.5" fill="#8FDD92"/>
<rect y="13" width="81" height="249" fill="#EEEEEE"/>
<rect y="22" width="81" height="24" fill="#C8C7F1"/>
<path d="M19.733 33H18.8523C18.8002 32.7467 18.709 32.5241 18.5788 32.3324C18.451 32.1406 18.2947 31.9796 18.1101 31.8494C17.9278 31.7169 17.7254 31.6174 17.5028 31.5511C17.2803 31.4848 17.0483 31.4517 16.8068 31.4517C16.3665 31.4517 15.9676 31.563 15.6101 31.7855C15.255 32.008 14.9721 32.3359 14.7614 32.7692C14.553 33.2024 14.4489 33.7339 14.4489 34.3636C14.4489 34.9934 14.553 35.5249 14.7614 35.9581C14.9721 36.3913 15.255 36.7192 15.6101 36.9418C15.9676 37.1643 16.3665 37.2756 16.8068 37.2756C17.0483 37.2756 17.2803 37.2424 17.5028 37.1761C17.7254 37.1098 17.9278 37.0116 18.1101 36.8814C18.2947 36.7488 18.451 36.5866 18.5788 36.3949C18.709 36.2008 18.8002 35.9782 18.8523 35.7273H19.733C19.6667 36.099 19.5459 36.4316 19.3707 36.7251C19.1955 37.0187 18.9777 37.2685 18.7173 37.4744C18.4569 37.678 18.1645 37.8331 17.8402 37.9396C17.5182 38.0462 17.1738 38.0994 16.8068 38.0994C16.1866 38.0994 15.6349 37.9479 15.152 37.6449C14.669 37.3419 14.2891 36.911 14.0121 36.3523C13.7351 35.7936 13.5966 35.1307 13.5966 34.3636C13.5966 33.5966 13.7351 32.9337 14.0121 32.375C14.2891 31.8163 14.669 31.3854 15.152 31.0824C15.6349 30.7794 16.1866 30.6278 16.8068 30.6278C17.1738 30.6278 17.5182 30.6811 17.8402 30.7876C18.1645 30.8942 18.4569 31.0504 18.7173 31.2564C18.9777 31.46 19.1955 31.7086 19.3707 32.0021C19.5459 32.2933 19.6667 32.6259 19.733 33ZM27.2924 34.3636C27.2924 35.1307 27.1539 35.7936 26.877 36.3523C26.6 36.911 26.22 37.3419 25.737 37.6449C25.2541 37.9479 24.7025 38.0994 24.0822 38.0994C23.4619 38.0994 22.9103 37.9479 22.4274 37.6449C21.9444 37.3419 21.5645 36.911 21.2875 36.3523C21.0105 35.7936 20.872 35.1307 20.872 34.3636C20.872 33.5966 21.0105 32.9337 21.2875 32.375C21.5645 31.8163 21.9444 31.3854 22.4274 31.0824C22.9103 30.7794 23.4619 30.6278 24.0822 30.6278C24.7025 30.6278 25.2541 30.7794 25.737 31.0824C26.22 31.3854 26.6 31.8163 26.877 32.375C27.1539 32.9337 27.2924 33.5966 27.2924 34.3636ZM26.4402 34.3636C26.4402 33.7339 26.3348 33.2024 26.1241 32.7692C25.9158 32.3359 25.6329 32.008 25.2754 31.7855C24.9203 31.563 24.5225 31.4517 24.0822 31.4517C23.6419 31.4517 23.243 31.563 22.8855 31.7855C22.5304 32.008 22.2475 32.3359 22.0368 32.7692C21.8284 33.2024 21.7243 33.7339 21.7243 34.3636C21.7243 34.9934 21.8284 35.5249 22.0368 35.9581C22.2475 36.3913 22.5304 36.7192 22.8855 36.9418C23.243 37.1643 23.6419 37.2756 24.0822 37.2756C24.5225 37.2756 24.9203 37.1643 25.2754 36.9418C25.6329 36.7192 25.9158 36.3913 26.1241 35.9581C26.3348 35.5249 26.4402 34.9934 26.4402 34.3636ZM28.7733 30.7273H29.8244L32.296 36.7642H32.3812L34.8528 30.7273H35.9039V38H35.0801V32.4744H35.0091L32.7363 38H31.9409L29.6681 32.4744H29.5971V38H28.7733V30.7273ZM37.6697 38V30.7273H40.1271C40.6977 30.7273 41.1641 30.8303 41.5263 31.0362C41.8909 31.2398 42.1607 31.5156 42.3359 31.8636C42.5111 32.2116 42.5987 32.5999 42.5987 33.0284C42.5987 33.4569 42.5111 33.8464 42.3359 34.1967C42.1631 34.5471 41.8956 34.8265 41.5334 35.0348C41.1712 35.2408 40.7071 35.3438 40.1413 35.3438H38.38V34.5625H40.1129C40.5036 34.5625 40.8172 34.495 41.054 34.3601C41.2907 34.2251 41.4624 34.0429 41.5689 33.8132C41.6778 33.5812 41.7322 33.3196 41.7322 33.0284C41.7322 32.7372 41.6778 32.4768 41.5689 32.2472C41.4624 32.0175 41.2895 31.8376 41.0504 31.7074C40.8113 31.5748 40.4941 31.5085 40.0987 31.5085H38.5504V38H37.6697ZM49.1594 38.0994C48.6907 38.0994 48.2728 38.0189 47.9059 37.858C47.5413 37.697 47.2513 37.4732 47.0359 37.1868C46.8228 36.898 46.7068 36.563 46.6879 36.1818H47.5827C47.6017 36.4162 47.6822 36.6186 47.8242 36.7891C47.9663 36.9571 48.1521 37.0874 48.3817 37.1797C48.6114 37.272 48.8659 37.3182 49.1452 37.3182C49.4577 37.3182 49.7347 37.2637 49.9762 37.1548C50.2177 37.0459 50.4071 36.8944 50.5444 36.7003C50.6817 36.5062 50.7504 36.2812 50.7504 36.0256C50.7504 35.758 50.6841 35.5225 50.5515 35.3189C50.4189 35.1129 50.2248 34.9519 49.9691 34.8359C49.7134 34.7199 49.4009 34.6619 49.0316 34.6619H48.4492V33.8807H49.0316C49.3204 33.8807 49.5737 33.8286 49.7915 33.7244C50.0117 33.6203 50.1834 33.4735 50.3065 33.2841C50.4319 33.0947 50.4947 32.8722 50.4947 32.6165C50.4947 32.3703 50.4402 32.156 50.3313 31.9737C50.2224 31.7914 50.0685 31.6494 49.8697 31.5476C49.6732 31.4458 49.4412 31.3949 49.1737 31.3949C48.9227 31.3949 48.686 31.4411 48.4634 31.5334C48.2433 31.6233 48.0633 31.7547 47.9237 31.9276C47.784 32.098 47.7082 32.304 47.6964 32.5455H46.8441C46.8583 32.1643 46.9731 31.8305 47.1886 31.544C47.404 31.2552 47.6857 31.0303 48.0337 30.8693C48.3841 30.7083 48.7688 30.6278 49.1879 30.6278C49.6377 30.6278 50.0236 30.719 50.3455 30.9013C50.6675 31.0812 50.9149 31.3191 51.0877 31.6151C51.2605 31.911 51.3469 32.2306 51.3469 32.5739C51.3469 32.9834 51.2392 33.3326 51.0238 33.6214C50.8107 33.9103 50.5207 34.1103 50.1538 34.2216V34.2784C50.613 34.3542 50.9717 34.5495 51.2298 34.8643C51.4878 35.1768 51.6168 35.5639 51.6168 36.0256C51.6168 36.4209 51.5091 36.776 51.2937 37.0909C51.0806 37.4034 50.7894 37.6496 50.4201 37.8295C50.0508 38.0095 49.6306 38.0994 49.1594 38.0994ZM55.4414 38.0994C54.9064 38.0994 54.4506 37.9538 54.0742 37.6626C53.6978 37.3691 53.4102 36.9441 53.2113 36.3878C53.0124 35.8291 52.913 35.1544 52.913 34.3636C52.913 33.5777 53.0124 32.9065 53.2113 32.3501C53.4125 31.7914 53.7013 31.3653 54.0778 31.0717C54.4566 30.7758 54.9111 30.6278 55.4414 30.6278C55.9717 30.6278 56.4251 30.7758 56.8015 31.0717C57.1803 31.3653 57.4691 31.7914 57.668 32.3501C57.8692 32.9065 57.9698 33.5777 57.9698 34.3636C57.9698 35.1544 57.8704 35.8291 57.6715 36.3878C57.4727 36.9441 57.185 37.3691 56.8086 37.6626C56.4322 37.9538 55.9764 38.0994 55.4414 38.0994ZM55.4414 37.3182C55.9717 37.3182 56.3836 37.0625 56.6772 36.5511C56.9708 36.0398 57.1175 35.3106 57.1175 34.3636C57.1175 33.7339 57.0501 33.1977 56.9151 32.755C56.7826 32.3123 56.5908 31.9749 56.3398 31.7429C56.0913 31.5109 55.7918 31.3949 55.4414 31.3949C54.9158 31.3949 54.5051 31.6541 54.2092 32.1726C53.9132 32.6887 53.7653 33.419 53.7653 34.3636C53.7653 34.9934 53.8316 35.5284 53.9641 35.9688C54.0967 36.4091 54.2873 36.7441 54.5359 36.9737C54.7868 37.2034 55.0887 37.3182 55.4414 37.3182ZM59.3512 38L62.604 31.5653V31.5085H58.854V30.7273H63.5131V31.5511L60.2745 38H59.3512Z" fill="#828282"/>
<path d="M19.733 83H18.8523C18.8002 82.7467 18.709 82.5241 18.5788 82.3324C18.451 82.1406 18.2947 81.9796 18.1101 81.8494C17.9278 81.7169 17.7254 81.6174 17.5028 81.5511C17.2803 81.4848 17.0483 81.4517 16.8068 81.4517C16.3665 81.4517 15.9676 81.563 15.6101 81.7855C15.255 82.008 14.9721 82.3359 14.7614 82.7692C14.553 83.2024 14.4489 83.7339 14.4489 84.3636C14.4489 84.9934 14.553 85.5249 14.7614 85.9581C14.9721 86.3913 15.255 86.7192 15.6101 86.9418C15.9676 87.1643 16.3665 87.2756 16.8068 87.2756C17.0483 87.2756 17.2803 87.2424 17.5028 87.1761C17.7254 87.1098 17.9278 87.0116 18.1101 86.8814C18.2947 86.7488 18.451 86.5866 18.5788 86.3949C18.709 86.2008 18.8002 85.9782 18.8523 85.7273H19.733C19.6667 86.099 19.5459 86.4316 19.3707 86.7251C19.1955 87.0187 18.9777 87.2685 18.7173 87.4744C18.4569 87.678 18.1645 87.8331 17.8402 87.9396C17.5182 88.0462 17.1738 88.0994 16.8068 88.0994C16.1866 88.0994 15.6349 87.9479 15.152 87.6449C14.669 87.3419 14.2891 86.911 14.0121 86.3523C13.7351 85.7936 13.5966 85.1307 13.5966 84.3636C13.5966 83.5966 13.7351 82.9337 14.0121 82.375C14.2891 81.8163 14.669 81.3854 15.152 81.0824C15.6349 80.7794 16.1866 80.6278 16.8068 80.6278C17.1738 80.6278 17.5182 80.6811 17.8402 80.7876C18.1645 80.8942 18.4569 81.0504 18.7173 81.2564C18.9777 81.46 19.1955 81.7086 19.3707 82.0021C19.5459 82.2933 19.6667 82.6259 19.733 83ZM27.2924 84.3636C27.2924 85.1307 27.1539 85.7936 26.877 86.3523C26.6 86.911 26.22 87.3419 25.737 87.6449C25.2541 87.9479 24.7025 88.0994 24.0822 88.0994C23.4619 88.0994 22.9103 87.9479 22.4274 87.6449C21.9444 87.3419 21.5645 86.911 21.2875 86.3523C21.0105 85.7936 20.872 85.1307 20.872 84.3636C20.872 83.5966 21.0105 82.9337 21.2875 82.375C21.5645 81.8163 21.9444 81.3854 22.4274 81.0824C22.9103 80.7794 23.4619 80.6278 24.0822 80.6278C24.7025 80.6278 25.2541 80.7794 25.737 81.0824C26.22 81.3854 26.6 81.8163 26.877 82.375C27.1539 82.9337 27.2924 83.5966 27.2924 84.3636ZM26.4402 84.3636C26.4402 83.7339 26.3348 83.2024 26.1241 82.7692C25.9158 82.3359 25.6329 82.008 25.2754 81.7855C24.9203 81.563 24.5225 81.4517 24.0822 81.4517C23.6419 81.4517 23.243 81.563 22.8855 81.7855C22.5304 82.008 22.2475 82.3359 22.0368 82.7692C21.8284 83.2024 21.7243 83.7339 21.7243 84.3636C21.7243 84.9934 21.8284 85.5249 22.0368 85.9581C22.2475 86.3913 22.5304 86.7192 22.8855 86.9418C23.243 87.1643 23.6419 87.2756 24.0822 87.2756C24.5225 87.2756 24.9203 87.1643 25.2754 86.9418C25.6329 86.7192 25.9158 86.3913 26.1241 85.9581C26.3348 85.5249 26.4402 84.9934 26.4402 84.3636ZM28.7733 80.7273H29.8244L32.296 86.7642H32.3812L34.8528 80.7273H35.9039V88H35.0801V82.4744H35.0091L32.7363 88H31.9409L29.6681 82.4744H29.5971V88H28.7733V80.7273ZM37.6697 88V80.7273H40.1271C40.6977 80.7273 41.1641 80.8303 41.5263 81.0362C41.8909 81.2398 42.1607 81.5156 42.3359 81.8636C42.5111 82.2116 42.5987 82.5999 42.5987 83.0284C42.5987 83.4569 42.5111 83.8464 42.3359 84.1967C42.1631 84.5471 41.8956 84.8265 41.5334 85.0348C41.1712 85.2408 40.7071 85.3438 40.1413 85.3438H38.38V84.5625H40.1129C40.5036 84.5625 40.8172 84.495 41.054 84.3601C41.2907 84.2251 41.4624 84.0429 41.5689 83.8132C41.6778 83.5812 41.7322 83.3196 41.7322 83.0284C41.7322 82.7372 41.6778 82.4768 41.5689 82.2472C41.4624 82.0175 41.2895 81.8376 41.0504 81.7074C40.8113 81.5748 40.4941 81.5085 40.0987 81.5085H38.5504V88H37.6697ZM49.1594 88.0994C48.6907 88.0994 48.2728 88.0189 47.9059 87.858C47.5413 87.697 47.2513 87.4732 47.0359 87.1868C46.8228 86.898 46.7068 86.563 46.6879 86.1818H47.5827C47.6017 86.4162 47.6822 86.6186 47.8242 86.7891C47.9663 86.9571 48.1521 87.0874 48.3817 87.1797C48.6114 87.272 48.8659 87.3182 49.1452 87.3182C49.4577 87.3182 49.7347 87.2637 49.9762 87.1548C50.2177 87.0459 50.4071 86.8944 50.5444 86.7003C50.6817 86.5062 50.7504 86.2812 50.7504 86.0256C50.7504 85.758 50.6841 85.5225 50.5515 85.3189C50.4189 85.1129 50.2248 84.9519 49.9691 84.8359C49.7134 84.7199 49.4009 84.6619 49.0316 84.6619H48.4492V83.8807H49.0316C49.3204 83.8807 49.5737 83.8286 49.7915 83.7244C50.0117 83.6203 50.1834 83.4735 50.3065 83.2841C50.4319 83.0947 50.4947 82.8722 50.4947 82.6165C50.4947 82.3703 50.4402 82.156 50.3313 81.9737C50.2224 81.7914 50.0685 81.6494 49.8697 81.5476C49.6732 81.4458 49.4412 81.3949 49.1737 81.3949C48.9227 81.3949 48.686 81.4411 48.4634 81.5334C48.2433 81.6233 48.0633 81.7547 47.9237 81.9276C47.784 82.098 47.7082 82.304 47.6964 82.5455H46.8441C46.8583 82.1643 46.9731 81.8305 47.1886 81.544C47.404 81.2552 47.6857 81.0303 48.0337 80.8693C48.3841 80.7083 48.7688 80.6278 49.1879 80.6278C49.6377 80.6278 50.0236 80.719 50.3455 80.9013C50.6675 81.0812 50.9149 81.3191 51.0877 81.6151C51.2605 81.911 51.3469 82.2306 51.3469 82.5739C51.3469 82.9834 51.2392 83.3326 51.0238 83.6214C50.8107 83.9103 50.5207 84.1103 50.1538 84.2216V84.2784C50.613 84.3542 50.9717 84.5495 51.2298 84.8643C51.4878 85.1768 51.6168 85.5639 51.6168 86.0256C51.6168 86.4209 51.5091 86.776 51.2937 87.0909C51.0806 87.4034 50.7894 87.6496 50.4201 87.8295C50.0508 88.0095 49.6306 88.0994 49.1594 88.0994ZM53.0692 88V87.3608L55.4698 84.733C55.7515 84.4252 55.9835 84.1577 56.1658 83.9304C56.3481 83.7008 56.4831 83.4853 56.5707 83.2841C56.6606 83.0805 56.7056 82.8674 56.7056 82.6449C56.7056 82.3892 56.6441 82.1679 56.521 81.9808C56.4002 81.7938 56.2345 81.6494 56.0238 81.5476C55.8131 81.4458 55.5763 81.3949 55.3136 81.3949C55.0342 81.3949 54.7904 81.4529 54.582 81.5689C54.3761 81.6825 54.2163 81.8423 54.1026 82.0483C53.9914 82.2543 53.9357 82.4957 53.9357 82.7727H53.0977C53.0977 82.3466 53.1959 81.9725 53.3924 81.6506C53.5889 81.3286 53.8564 81.0777 54.195 80.8977C54.5359 80.7178 54.9182 80.6278 55.342 80.6278C55.7681 80.6278 56.1457 80.7178 56.4748 80.8977C56.8039 81.0777 57.0619 81.3203 57.2489 81.6257C57.436 81.9311 57.5295 82.2708 57.5295 82.6449C57.5295 82.9124 57.4809 83.174 57.3839 83.4297C57.2892 83.683 57.1235 83.9659 56.8867 84.2784C56.6523 84.5885 56.3268 84.9673 55.9102 85.4148L54.2766 87.1619V87.2188H57.6573V88H53.0692ZM59.1239 88V87.3608L61.5245 84.733C61.8062 84.4252 62.0382 84.1577 62.2205 83.9304C62.4028 83.7008 62.5378 83.4853 62.6254 83.2841C62.7153 83.0805 62.7603 82.8674 62.7603 82.6449C62.7603 82.3892 62.6987 82.1679 62.5756 81.9808C62.4549 81.7938 62.2892 81.6494 62.0785 81.5476C61.8678 81.4458 61.631 81.3949 61.3683 81.3949C61.0889 81.3949 60.8451 81.4529 60.6367 81.5689C60.4308 81.6825 60.271 81.8423 60.1573 82.0483C60.046 82.2543 59.9904 82.4957 59.9904 82.7727H59.1523C59.1523 82.3466 59.2506 81.9725 59.4471 81.6506C59.6436 81.3286 59.9111 81.0777 60.2496 80.8977C60.5906 80.7178 60.9729 80.6278 61.3967 80.6278C61.8228 80.6278 62.2004 80.7178 62.5295 80.8977C62.8585 81.0777 63.1166 81.3203 63.3036 81.6257C63.4906 81.9311 63.5842 82.2708 63.5842 82.6449C63.5842 82.9124 63.5356 83.174 63.4386 83.4297C63.3439 83.683 63.1781 83.9659 62.9414 84.2784C62.707 84.5885 62.3815 84.9673 61.9648 85.4148L60.3313 87.1619V87.2188H63.712V88H59.1239Z" fill="#828282"/>
<path d="M13.8807 56.7273H14.9318L17.4034 62.7642H17.4886L19.9602 56.7273H21.0114V64H20.1875V58.4744H20.1165L17.8438 64H17.0483L14.7756 58.4744H14.7045V64H13.8807V56.7273ZM23.0755 64H22.1522L24.8226 56.7273H25.7317L28.4022 64H27.4789L25.3056 57.8778H25.2488L23.0755 64ZM23.4164 61.1591H27.138V61.9403H23.4164V61.1591ZM28.2876 57.5085V56.7273H33.7422V57.5085H31.4553V64H30.5746V57.5085H28.2876ZM35.1014 64V56.7273H35.9821V59.9659H39.8599V56.7273H40.7406V64H39.8599V60.7472H35.9821V64H35.1014ZM45.1884 64V63.3608L47.589 60.733C47.8707 60.4252 48.1027 60.1577 48.285 59.9304C48.4673 59.7008 48.6022 59.4853 48.6898 59.2841C48.7798 59.0805 48.8248 58.8674 48.8248 58.6449C48.8248 58.3892 48.7632 58.1679 48.6401 57.9808C48.5194 57.7938 48.3536 57.6494 48.1429 57.5476C47.9322 57.4458 47.6955 57.3949 47.4327 57.3949C47.1533 57.3949 46.9095 57.4529 46.7012 57.5689C46.4952 57.6825 46.3354 57.8423 46.2218 58.0483C46.1105 58.2543 46.0549 58.4957 46.0549 58.7727H45.2168C45.2168 58.3466 45.315 57.9725 45.5115 57.6506C45.708 57.3286 45.9756 57.0777 46.3141 56.8977C46.655 56.7178 47.0373 56.6278 47.4611 56.6278C47.8873 56.6278 48.2649 56.7178 48.5939 56.8977C48.923 57.0777 49.181 57.3203 49.3681 57.6257C49.5551 57.9311 49.6486 58.2708 49.6486 58.6449C49.6486 58.9124 49.6001 59.174 49.503 59.4297C49.4083 59.683 49.2426 59.9659 49.0059 60.2784C48.7715 60.5885 48.446 60.9673 48.0293 61.4148L46.3958 63.1619V63.2188H49.7765V64H45.1884ZM51.2431 64V63.3608L53.6436 60.733C53.9254 60.4252 54.1574 60.1577 54.3397 59.9304C54.522 59.7008 54.6569 59.4853 54.7445 59.2841C54.8345 59.0805 54.8794 58.8674 54.8794 58.6449C54.8794 58.3892 54.8179 58.1679 54.6948 57.9808C54.574 57.7938 54.4083 57.6494 54.1976 57.5476C53.9869 57.4458 53.7502 57.3949 53.4874 57.3949C53.208 57.3949 52.9642 57.4529 52.7559 57.5689C52.5499 57.6825 52.3901 57.8423 52.2765 58.0483C52.1652 58.2543 52.1096 58.4957 52.1096 58.7727H51.2715C51.2715 58.3466 51.3697 57.9725 51.5662 57.6506C51.7627 57.3286 52.0302 57.0777 52.3688 56.8977C52.7097 56.7178 53.092 56.6278 53.5158 56.6278C53.9419 56.6278 54.3195 56.7178 54.6486 56.8977C54.9777 57.0777 55.2357 57.3203 55.4228 57.6257C55.6098 57.9311 55.7033 58.2708 55.7033 58.6449C55.7033 58.9124 55.6548 59.174 55.5577 59.4297C55.463 59.683 55.2973 59.9659 55.0605 60.2784C54.8262 60.5885 54.5007 60.9673 54.084 61.4148L52.4505 63.1619V63.2188H55.8311V64H51.2431ZM59.7551 64.0994C59.2864 64.0994 58.8685 64.0189 58.5016 63.858C58.137 63.697 57.847 63.4732 57.6316 63.1868C57.4185 62.898 57.3025 62.563 57.2836 62.1818H58.1784C58.1974 62.4162 58.2779 62.6186 58.4199 62.7891C58.562 62.9571 58.7478 63.0874 58.9775 63.1797C59.2071 63.272 59.4616 63.3182 59.7409 63.3182C60.0534 63.3182 60.3304 63.2637 60.5719 63.1548C60.8134 63.0459 61.0028 62.8944 61.1401 62.7003C61.2774 62.5062 61.3461 62.2812 61.3461 62.0256C61.3461 61.758 61.2798 61.5225 61.1472 61.3189C61.0146 61.1129 60.8205 60.9519 60.5648 60.8359C60.3091 60.7199 59.9966 60.6619 59.6273 60.6619H59.0449V59.8807H59.6273C59.9161 59.8807 60.1694 59.8286 60.3873 59.7244C60.6074 59.6203 60.7791 59.4735 60.9022 59.2841C61.0276 59.0947 61.0904 58.8722 61.0904 58.6165C61.0904 58.3703 61.0359 58.156 60.927 57.9737C60.8181 57.7914 60.6642 57.6494 60.4654 57.5476C60.2689 57.4458 60.0369 57.3949 59.7694 57.3949C59.5184 57.3949 59.2817 57.4411 59.0591 57.5334C58.839 57.6233 58.659 57.7547 58.5194 57.9276C58.3797 58.098 58.3039 58.304 58.2921 58.5455H57.4398C57.454 58.1643 57.5688 57.8305 57.7843 57.544C57.9997 57.2552 58.2814 57.0303 58.6294 56.8693C58.9798 56.7083 59.3645 56.6278 59.7836 56.6278C60.2334 56.6278 60.6193 56.719 60.9412 56.9013C61.2632 57.0812 61.5106 57.3191 61.6834 57.6151C61.8562 57.911 61.9426 58.2306 61.9426 58.5739C61.9426 58.9834 61.8349 59.3326 61.6195 59.6214C61.4064 59.9103 61.1164 60.1103 60.7495 60.2216V60.2784C61.2087 60.3542 61.5674 60.5495 61.8255 60.8643C62.0835 61.1768 62.2125 61.5639 62.2125 62.0256C62.2125 62.4209 62.1048 62.776 61.8894 63.0909C61.6763 63.4034 61.3851 63.6496 61.0158 63.8295C60.6465 64.0095 60.2263 64.0994 59.7551 64.0994Z" fill="#828282"/>
<rect x="102" y="26" width="100" height="10" rx="4" fill="#8E8D8D"/>
<rect x="102" y="72" width="144" height="8" rx="4" fill="#C4C4C4"/>
<rect x="102" y="100" width="109" height="8" rx="4" fill="#C4C4C4"/>
<rect x="102" y="128" width="129" height="8" rx="4" fill="#C4C4C4"/>
</svg>
