<svg width="255" height="70" viewBox="0 0 255 70" fill="none" xmlns="http://www.w3.org/2000/svg">
<path d="M59.4261 33.794V32.2727H66.5938V33.794H63.9219V41H62.098V33.794H59.4261ZM68.212 41H66.2347L69.2475 32.2727H71.6254L74.6339 41H72.6566L70.4705 34.267H70.4023L68.212 41ZM68.0884 37.5696H72.7589V39.0099H68.0884V37.5696ZM78.4616 32.2727H80.7372L83.1406 38.1364H83.2429L85.6463 32.2727H87.9219V41H86.1321V35.3196H86.0597L83.8011 40.9574H82.5824L80.3239 35.2983H80.2514V41H78.4616V32.2727ZM91.2745 41.1236C90.8569 41.1236 90.4847 41.0511 90.158 40.9062C89.8313 40.7585 89.5728 40.5412 89.3825 40.2543C89.195 39.9645 89.1012 39.6037 89.1012 39.1719C89.1012 38.8082 89.168 38.5028 89.3015 38.2557C89.435 38.0085 89.6168 37.8097 89.8469 37.6591C90.0771 37.5085 90.3384 37.3949 90.631 37.3182C90.9265 37.2415 91.2362 37.1875 91.56 37.1562C91.9407 37.1165 92.2475 37.0795 92.4805 37.0455C92.7134 37.0085 92.8825 36.9545 92.9876 36.8835C93.0927 36.8125 93.1452 36.7074 93.1452 36.5682V36.5426C93.1452 36.2727 93.06 36.0639 92.8896 35.9162C92.7219 35.7685 92.4833 35.6946 92.1737 35.6946C91.8469 35.6946 91.587 35.767 91.3938 35.9119C91.2006 36.054 91.0728 36.233 91.0103 36.4489L89.3313 36.3125C89.4165 35.9148 89.5842 35.571 89.8342 35.2812C90.0842 34.9886 90.4066 34.7642 90.8015 34.608C91.1992 34.4489 91.6594 34.3693 92.1822 34.3693C92.5458 34.3693 92.8938 34.4119 93.2262 34.4972C93.5614 34.5824 93.8583 34.7145 94.1168 34.8935C94.3782 35.0724 94.5842 35.3026 94.7347 35.5838C94.8853 35.8622 94.9606 36.196 94.9606 36.5852V41H93.239V40.0923H93.1879C93.0827 40.2969 92.9421 40.4773 92.766 40.6335C92.5898 40.7869 92.3782 40.9077 92.131 40.9957C91.8839 41.081 91.5984 41.1236 91.2745 41.1236ZM91.7944 39.8707C92.0614 39.8707 92.2972 39.8182 92.5018 39.7131C92.7063 39.6051 92.8668 39.4602 92.9833 39.2784C93.0998 39.0966 93.158 38.8906 93.158 38.6605V37.9659C93.1012 38.0028 93.0231 38.0369 92.9237 38.0682C92.8271 38.0966 92.7177 38.1236 92.5955 38.1491C92.4734 38.1719 92.3512 38.1932 92.229 38.2131C92.1069 38.2301 91.9961 38.2457 91.8967 38.2599C91.6836 38.2912 91.4975 38.3409 91.3384 38.4091C91.1793 38.4773 91.0558 38.5696 90.9677 38.6861C90.8796 38.7997 90.8356 38.9418 90.8356 39.1122C90.8356 39.3594 90.9251 39.5483 91.104 39.679C91.2859 39.8068 91.516 39.8707 91.7944 39.8707ZM98.1843 37.2159V41H96.369V34.4545H98.0991V35.6094H98.1758C98.3207 35.2287 98.5636 34.9276 98.9045 34.706C99.2454 34.4815 99.6587 34.3693 100.145 34.3693C100.599 34.3693 100.995 34.4688 101.333 34.6676C101.672 34.8665 101.934 35.1506 102.122 35.5199C102.309 35.8864 102.403 36.3239 102.403 36.8324V41H100.588V37.1562C100.591 36.7557 100.488 36.4432 100.281 36.2188C100.074 35.9915 99.788 35.8778 99.4244 35.8778C99.18 35.8778 98.9641 35.9304 98.7766 36.0355C98.592 36.1406 98.4471 36.294 98.342 36.4957C98.2397 36.6946 98.1871 36.9347 98.1843 37.2159ZM105.7 41.1236C105.283 41.1236 104.911 41.0511 104.584 40.9062C104.257 40.7585 103.999 40.5412 103.808 40.2543C103.621 39.9645 103.527 39.6037 103.527 39.1719C103.527 38.8082 103.594 38.5028 103.727 38.2557C103.861 38.0085 104.043 37.8097 104.273 37.6591C104.503 37.5085 104.764 37.3949 105.057 37.3182C105.352 37.2415 105.662 37.1875 105.986 37.1562C106.366 37.1165 106.673 37.0795 106.906 37.0455C107.139 37.0085 107.308 36.9545 107.413 36.8835C107.518 36.8125 107.571 36.7074 107.571 36.5682V36.5426C107.571 36.2727 107.486 36.0639 107.315 35.9162C107.148 35.7685 106.909 35.6946 106.599 35.6946C106.273 35.6946 106.013 35.767 105.82 35.9119C105.626 36.054 105.499 36.233 105.436 36.4489L103.757 36.3125C103.842 35.9148 104.01 35.571 104.26 35.2812C104.51 34.9886 104.832 34.7642 105.227 34.608C105.625 34.4489 106.085 34.3693 106.608 34.3693C106.972 34.3693 107.32 34.4119 107.652 34.4972C107.987 34.5824 108.284 34.7145 108.543 34.8935C108.804 35.0724 109.01 35.3026 109.161 35.5838C109.311 35.8622 109.386 36.196 109.386 36.5852V41H107.665V40.0923H107.614C107.509 40.2969 107.368 40.4773 107.192 40.6335C107.016 40.7869 106.804 40.9077 106.557 40.9957C106.31 41.081 106.024 41.1236 105.7 41.1236ZM106.22 39.8707C106.487 39.8707 106.723 39.8182 106.928 39.7131C107.132 39.6051 107.293 39.4602 107.409 39.2784C107.526 39.0966 107.584 38.8906 107.584 38.6605V37.9659C107.527 38.0028 107.449 38.0369 107.349 38.0682C107.253 38.0966 107.143 38.1236 107.021 38.1491C106.899 38.1719 106.777 38.1932 106.655 38.2131C106.533 38.2301 106.422 38.2457 106.322 38.2599C106.109 38.2912 105.923 38.3409 105.764 38.4091C105.605 38.4773 105.482 38.5696 105.393 38.6861C105.305 38.7997 105.261 38.9418 105.261 39.1122C105.261 39.3594 105.351 39.5483 105.53 39.679C105.712 39.8068 105.942 39.8707 106.22 39.8707ZM113.744 43.5909C113.156 43.5909 112.651 43.5099 112.231 43.348C111.813 43.1889 111.481 42.9716 111.234 42.696C110.987 42.4205 110.826 42.1108 110.752 41.767L112.431 41.5412C112.482 41.6719 112.563 41.794 112.674 41.9077C112.785 42.0213 112.931 42.1122 113.113 42.1804C113.298 42.2514 113.522 42.2869 113.786 42.2869C114.181 42.2869 114.506 42.1903 114.762 41.9972C115.021 41.8068 115.15 41.4872 115.15 41.0384V39.8409H115.073C114.994 40.0227 114.874 40.1946 114.715 40.3565C114.556 40.5185 114.352 40.6506 114.102 40.7528C113.852 40.8551 113.553 40.9062 113.207 40.9062C112.715 40.9062 112.268 40.7926 111.864 40.5653C111.464 40.3352 111.144 39.9844 110.906 39.5128C110.67 39.0384 110.552 38.4389 110.552 37.7145C110.552 36.973 110.673 36.3537 110.914 35.8565C111.156 35.3594 111.477 34.9872 111.877 34.7401C112.281 34.4929 112.722 34.3693 113.202 34.3693C113.569 34.3693 113.876 34.4318 114.123 34.5568C114.37 34.679 114.569 34.8324 114.719 35.017C114.873 35.1989 114.991 35.3778 115.073 35.554H115.141V34.4545H116.944V41.0639C116.944 41.6207 116.808 42.0866 116.535 42.4616C116.262 42.8366 115.884 43.1179 115.401 43.3054C114.921 43.4957 114.369 43.5909 113.744 43.5909ZM113.782 39.5426C114.075 39.5426 114.322 39.4702 114.523 39.3253C114.728 39.1776 114.884 38.9673 114.992 38.6946C115.103 38.419 115.158 38.0895 115.158 37.706C115.158 37.3224 115.104 36.9901 114.996 36.7088C114.888 36.4247 114.732 36.2045 114.528 36.0483C114.323 35.892 114.075 35.8139 113.782 35.8139C113.484 35.8139 113.232 35.8949 113.028 36.0568C112.823 36.2159 112.668 36.4375 112.563 36.7216C112.458 37.0057 112.406 37.3338 112.406 37.706C112.406 38.0838 112.458 38.4105 112.563 38.6861C112.671 38.9588 112.826 39.1705 113.028 39.321C113.232 39.4687 113.484 39.5426 113.782 39.5426ZM121.371 41.1278C120.698 41.1278 120.119 40.9915 119.633 40.7188C119.15 40.4432 118.778 40.054 118.516 39.5511C118.255 39.0455 118.124 38.4474 118.124 37.7571C118.124 37.0838 118.255 36.4929 118.516 35.9844C118.778 35.4759 119.146 35.0795 119.62 34.7955C120.097 34.5114 120.657 34.3693 121.299 34.3693C121.731 34.3693 122.133 34.4389 122.505 34.5781C122.88 34.7145 123.207 34.9205 123.485 35.196C123.766 35.4716 123.985 35.8182 124.141 36.2358C124.298 36.6506 124.376 37.1364 124.376 37.6932V38.1918H118.849V37.0668H122.667C122.667 36.8054 122.61 36.5739 122.496 36.3722C122.383 36.1705 122.225 36.0128 122.023 35.8991C121.825 35.7827 121.593 35.7244 121.329 35.7244C121.053 35.7244 120.809 35.7884 120.596 35.9162C120.386 36.0412 120.221 36.2102 120.102 36.4233C119.982 36.6335 119.921 36.8679 119.918 37.1264V38.196C119.918 38.5199 119.978 38.7997 120.097 39.0355C120.219 39.2713 120.391 39.4531 120.613 39.581C120.835 39.7088 121.097 39.7727 121.401 39.7727C121.603 39.7727 121.788 39.7443 121.955 39.6875C122.123 39.6307 122.266 39.5455 122.386 39.4318C122.505 39.3182 122.596 39.179 122.658 39.0142L124.337 39.125C124.252 39.5284 124.077 39.8807 123.813 40.1818C123.552 40.4801 123.214 40.7131 122.799 40.8807C122.387 41.0455 121.911 41.1278 121.371 41.1278ZM125.56 41V34.4545H127.29V35.6094H127.367C127.504 35.2259 127.731 34.9233 128.049 34.7017C128.367 34.4801 128.748 34.3693 129.191 34.3693C129.64 34.3693 130.022 34.4815 130.337 34.706C130.653 34.9276 130.863 35.2287 130.968 35.6094H131.036C131.17 35.2344 131.411 34.9347 131.761 34.7102C132.113 34.483 132.529 34.3693 133.009 34.3693C133.62 34.3693 134.116 34.5639 134.496 34.9531C134.88 35.3395 135.072 35.8878 135.072 36.598V41H133.261V36.956C133.261 36.5923 133.164 36.3196 132.971 36.1378C132.778 35.956 132.536 35.8651 132.246 35.8651C131.917 35.8651 131.66 35.9702 131.475 36.1804C131.29 36.3878 131.198 36.6619 131.198 37.0028V41H129.438V36.9176C129.438 36.5966 129.346 36.3409 129.161 36.1506C128.979 35.9602 128.739 35.8651 128.441 35.8651C128.239 35.8651 128.058 35.9162 127.896 36.0185C127.737 36.1179 127.61 36.2585 127.516 36.4403C127.423 36.6193 127.376 36.8295 127.376 37.071V41H125.56ZM139.489 41.1278C138.815 41.1278 138.236 40.9915 137.75 40.7188C137.267 40.4432 136.895 40.054 136.634 39.5511C136.372 39.0455 136.241 38.4474 136.241 37.7571C136.241 37.0838 136.372 36.4929 136.634 35.9844C136.895 35.4759 137.263 35.0795 137.737 34.7955C138.214 34.5114 138.774 34.3693 139.416 34.3693C139.848 34.3693 140.25 34.4389 140.622 34.5781C140.997 34.7145 141.324 34.9205 141.602 35.196C141.884 35.4716 142.102 35.8182 142.259 36.2358C142.415 36.6506 142.493 37.1364 142.493 37.6932V38.1918H136.966V37.0668H140.784C140.784 36.8054 140.727 36.5739 140.614 36.3722C140.5 36.1705 140.342 36.0128 140.141 35.8991C139.942 35.7827 139.71 35.7244 139.446 35.7244C139.17 35.7244 138.926 35.7884 138.713 35.9162C138.503 36.0412 138.338 36.2102 138.219 36.4233C138.099 36.6335 138.038 36.8679 138.036 37.1264V38.196C138.036 38.5199 138.095 38.7997 138.214 39.0355C138.337 39.2713 138.509 39.4531 138.73 39.581C138.952 39.7088 139.214 39.7727 139.518 39.7727C139.72 39.7727 139.905 39.7443 140.072 39.6875C140.24 39.6307 140.384 39.5455 140.503 39.4318C140.622 39.3182 140.713 39.179 140.776 39.0142L142.455 39.125C142.369 39.5284 142.195 39.8807 141.93 40.1818C141.669 40.4801 141.331 40.7131 140.916 40.8807C140.504 41.0455 140.028 41.1278 139.489 41.1278ZM145.493 37.2159V41H143.678V34.4545H145.408V35.6094H145.484C145.629 35.2287 145.872 34.9276 146.213 34.706C146.554 34.4815 146.967 34.3693 147.453 34.3693C147.908 34.3693 148.304 34.4688 148.642 34.6676C148.98 34.8665 149.243 35.1506 149.43 35.5199C149.618 35.8864 149.712 36.3239 149.712 36.8324V41H147.896V37.1562C147.899 36.7557 147.797 36.4432 147.589 36.2188C147.382 35.9915 147.097 35.8778 146.733 35.8778C146.489 35.8778 146.273 35.9304 146.085 36.0355C145.901 36.1406 145.756 36.294 145.651 36.4957C145.548 36.6946 145.496 36.9347 145.493 37.2159ZM154.624 34.4545V35.8182H150.682V34.4545H154.624ZM151.577 32.8864H153.392V38.9886C153.392 39.1562 153.418 39.2869 153.469 39.3807C153.52 39.4716 153.591 39.5355 153.682 39.5724C153.776 39.6094 153.884 39.6278 154.006 39.6278C154.091 39.6278 154.176 39.6207 154.262 39.6065C154.347 39.5895 154.412 39.5767 154.458 39.5682L154.743 40.919C154.652 40.9474 154.525 40.9801 154.36 41.017C154.195 41.0568 153.995 41.081 153.759 41.0895C153.321 41.1065 152.938 41.0483 152.608 40.9148C152.282 40.7812 152.027 40.5739 151.846 40.2926C151.664 40.0114 151.574 39.6562 151.577 39.2273V32.8864ZM158.618 41V32.2727H162.061C162.723 32.2727 163.287 32.3991 163.753 32.652C164.219 32.902 164.574 33.25 164.818 33.696C165.065 34.1392 165.189 34.6506 165.189 35.2301C165.189 35.8097 165.064 36.321 164.814 36.7642C164.564 37.2074 164.202 37.5526 163.727 37.7997C163.256 38.0469 162.685 38.1705 162.014 38.1705H159.82V36.6918H161.716C162.071 36.6918 162.364 36.6307 162.594 36.5085C162.827 36.3835 163 36.2116 163.114 35.9929C163.23 35.7713 163.288 35.517 163.288 35.2301C163.288 34.9403 163.23 34.6875 163.114 34.4716C163 34.2528 162.827 34.0838 162.594 33.9645C162.361 33.8423 162.065 33.7812 161.707 33.7812H160.463V41H158.618ZM168.169 32.2727V41H166.353V32.2727H168.169ZM171.489 41.1236C171.072 41.1236 170.7 41.0511 170.373 40.9062C170.046 40.7585 169.788 40.5412 169.597 40.2543C169.41 39.9645 169.316 39.6037 169.316 39.1719C169.316 38.8082 169.383 38.5028 169.516 38.2557C169.65 38.0085 169.832 37.8097 170.062 37.6591C170.292 37.5085 170.553 37.3949 170.846 37.3182C171.141 37.2415 171.451 37.1875 171.775 37.1562C172.156 37.1165 172.462 37.0795 172.695 37.0455C172.928 37.0085 173.097 36.9545 173.202 36.8835C173.308 36.8125 173.36 36.7074 173.36 36.5682V36.5426C173.36 36.2727 173.275 36.0639 173.104 35.9162C172.937 35.7685 172.698 35.6946 172.388 35.6946C172.062 35.6946 171.802 35.767 171.609 35.9119C171.415 36.054 171.288 36.233 171.225 36.4489L169.546 36.3125C169.631 35.9148 169.799 35.571 170.049 35.2812C170.299 34.9886 170.621 34.7642 171.016 34.608C171.414 34.4489 171.874 34.3693 172.397 34.3693C172.761 34.3693 173.109 34.4119 173.441 34.4972C173.776 34.5824 174.073 34.7145 174.332 34.8935C174.593 35.0724 174.799 35.3026 174.95 35.5838C175.1 35.8622 175.175 36.196 175.175 36.5852V41H173.454V40.0923H173.403C173.298 40.2969 173.157 40.4773 172.981 40.6335C172.805 40.7869 172.593 40.9077 172.346 40.9957C172.099 41.081 171.813 41.1236 171.489 41.1236ZM172.009 39.8707C172.276 39.8707 172.512 39.8182 172.717 39.7131C172.921 39.6051 173.082 39.4602 173.198 39.2784C173.315 39.0966 173.373 38.8906 173.373 38.6605V37.9659C173.316 38.0028 173.238 38.0369 173.138 38.0682C173.042 38.0966 172.933 38.1236 172.81 38.1491C172.688 38.1719 172.566 38.1932 172.444 38.2131C172.322 38.2301 172.211 38.2457 172.112 38.2599C171.898 38.2912 171.712 38.3409 171.553 38.4091C171.394 38.4773 171.271 38.5696 171.183 38.6861C171.094 38.7997 171.05 38.9418 171.05 39.1122C171.05 39.3594 171.14 39.5483 171.319 39.679C171.501 39.8068 171.731 39.8707 172.009 39.8707ZM180.065 34.4545V35.8182H176.124V34.4545H180.065ZM177.018 32.8864H178.834V38.9886C178.834 39.1562 178.859 39.2869 178.911 39.3807C178.962 39.4716 179.033 39.5355 179.124 39.5724C179.217 39.6094 179.325 39.6278 179.447 39.6278C179.533 39.6278 179.618 39.6207 179.703 39.6065C179.788 39.5895 179.854 39.5767 179.899 39.5682L180.185 40.919C180.094 40.9474 179.966 40.9801 179.801 41.017C179.636 41.0568 179.436 41.081 179.2 41.0895C178.763 41.1065 178.379 41.0483 178.05 40.9148C177.723 40.7812 177.469 40.5739 177.287 40.2926C177.105 40.0114 177.016 39.6562 177.018 39.2273V32.8864ZM184.768 34.4545V35.8182H180.728V34.4545H184.768ZM181.653 41V33.9815C181.653 33.5071 181.745 33.1136 181.93 32.8011C182.117 32.4886 182.373 32.2543 182.697 32.098C183.021 31.9418 183.388 31.8636 183.8 31.8636C184.079 31.8636 184.333 31.8849 184.563 31.9276C184.796 31.9702 184.969 32.0085 185.083 32.0426L184.759 33.4062C184.688 33.3835 184.6 33.3622 184.495 33.3423C184.393 33.3224 184.288 33.3125 184.18 33.3125C183.913 33.3125 183.727 33.375 183.621 33.5C183.516 33.6222 183.464 33.794 183.464 34.0156V41H181.653ZM188.6 41.1278C187.938 41.1278 187.365 40.9872 186.882 40.706C186.402 40.4219 186.032 40.027 185.77 39.5213C185.509 39.0128 185.378 38.4233 185.378 37.7528C185.378 37.0767 185.509 36.4858 185.77 35.9801C186.032 35.4716 186.402 35.0767 186.882 34.7955C187.365 34.5114 187.938 34.3693 188.6 34.3693C189.262 34.3693 189.833 34.5114 190.313 34.7955C190.796 35.0767 191.168 35.4716 191.429 35.9801C191.691 36.4858 191.821 37.0767 191.821 37.7528C191.821 38.4233 191.691 39.0128 191.429 39.5213C191.168 40.027 190.796 40.4219 190.313 40.706C189.833 40.9872 189.262 41.1278 188.6 41.1278ZM188.608 39.7216C188.909 39.7216 189.161 39.6364 189.363 39.4659C189.564 39.2926 189.716 39.0568 189.819 38.7585C189.924 38.4602 189.976 38.1207 189.976 37.7401C189.976 37.3594 189.924 37.0199 189.819 36.7216C189.716 36.4233 189.564 36.1875 189.363 36.0142C189.161 35.8409 188.909 35.7543 188.608 35.7543C188.304 35.7543 188.049 35.8409 187.841 36.0142C187.637 36.1875 187.482 36.4233 187.377 36.7216C187.275 37.0199 187.223 37.3594 187.223 37.7401C187.223 38.1207 187.275 38.4602 187.377 38.7585C187.482 39.0568 187.637 39.2926 187.841 39.4659C188.049 39.6364 188.304 39.7216 188.608 39.7216ZM193.002 41V34.4545H194.762V35.5966H194.83C194.949 35.1903 195.15 34.8835 195.431 34.6761C195.712 34.4659 196.036 34.3608 196.402 34.3608C196.493 34.3608 196.591 34.3665 196.696 34.3778C196.801 34.3892 196.894 34.4048 196.973 34.4247V36.0355C196.888 36.0099 196.77 35.9872 196.62 35.9673C196.469 35.9474 196.331 35.9375 196.206 35.9375C195.939 35.9375 195.701 35.9957 195.49 36.1122C195.283 36.2259 195.118 36.3849 194.996 36.5895C194.877 36.794 194.817 37.0298 194.817 37.2969V41H193.002ZM197.912 41V34.4545H199.642V35.6094H199.719C199.855 35.2259 200.082 34.9233 200.401 34.7017C200.719 34.4801 201.099 34.3693 201.543 34.3693C201.991 34.3693 202.374 34.4815 202.689 34.706C203.004 34.9276 203.214 35.2287 203.32 35.6094H203.388C203.521 35.2344 203.763 34.9347 204.112 34.7102C204.464 34.483 204.881 34.3693 205.361 34.3693C205.972 34.3693 206.467 34.5639 206.848 34.9531C207.232 35.3395 207.423 35.8878 207.423 36.598V41H205.612V36.956C205.612 36.5923 205.516 36.3196 205.322 36.1378C205.129 35.956 204.888 35.8651 204.598 35.8651C204.268 35.8651 204.011 35.9702 203.827 36.1804C203.642 36.3878 203.55 36.6619 203.55 37.0028V41H201.79V36.9176C201.79 36.5966 201.697 36.3409 201.513 36.1506C201.331 35.9602 201.091 35.8651 200.793 35.8651C200.591 35.8651 200.409 35.9162 200.247 36.0185C200.088 36.1179 199.962 36.2585 199.868 36.4403C199.774 36.6193 199.727 36.8295 199.727 37.071V41H197.912Z" fill="white"/>
<path d="M54.5 46H136.5H215.5" stroke="white" stroke-width="0.3"/>
<path d="M49.8125 26.2371C47.1057 27.5904 43.0269 29.5927 40.7466 30.7236C32.7004 34.6726 28.4177 38.1395 28.0284 41.0502C27.8801 42.1441 28.325 43.6829 29.0851 44.5913C30.9391 46.8161 34.647 46.7419 36.3898 44.443L36.9459 43.6829L39.7825 44.9435L42.6376 46.2042H48.7372C52.6861 46.2042 54.8367 46.1301 54.8367 46.0188C54.8367 45.9076 52.6861 45.8335 48.7742 45.8335H42.7118L39.8752 44.6098C38.3179 43.9239 37.0386 43.3121 37.0386 43.2194C37.0386 42.83 37.6505 42.9042 40.7651 43.7199C43.6573 44.4615 44.2135 44.5542 44.7697 44.3874C45.4927 44.1649 49.2748 42.107 49.2748 41.9216C49.2748 41.866 48.9226 41.8103 48.4961 41.7918C48.0512 41.7918 46.6236 41.6991 45.3073 41.5879C42.2854 41.3283 40.932 41.3283 41.3028 41.5693C41.5438 41.7362 41.5438 41.7547 41.3028 41.7547C41.1544 41.7547 40.5241 41.662 39.9123 41.5693C37.6875 41.1985 37.4651 41.18 37.2055 41.4952C37.0201 41.7177 37.0201 41.866 37.187 42.1441C37.3353 42.3665 37.3538 42.4963 37.224 42.4963C37.1128 42.4963 36.9089 42.7744 36.7605 43.1081C36.3712 44.0351 35.1847 45.2031 34.2948 45.5368C32.3481 46.2784 30.2531 45.611 29.1222 43.9053C28.566 43.1081 28.5104 42.8671 28.5104 41.6806C28.5104 39.4929 29.2149 38.5288 32.6818 35.9147C35.4257 33.8568 36.742 33.0782 40.4685 31.2798C42.2112 30.4456 46.0489 28.536 49.0338 27.0528C52.0187 25.5696 54.5401 24.3275 54.6698 24.2904C54.7996 24.2533 54.8552 24.1235 54.8182 24.0123C54.7811 23.8825 52.7417 24.791 49.8125 26.2371ZM41.8219 42.2368L45.5854 42.7559L44.9551 43.0896C44.2506 43.4418 44.8253 43.516 38.392 42.2924C37.7246 42.1626 37.4094 42.0143 37.4094 41.8289C37.4094 41.6435 37.5207 41.5693 37.7431 41.6435C37.91 41.6806 39.7454 41.9587 41.8219 42.2368ZM45.0107 41.9587C46.4939 42.0699 47.736 42.1997 47.7731 42.2368C47.9029 42.3665 47.2354 42.793 45.7708 43.5345L44.3803 44.2205L42.6005 43.7941C41.6365 43.5716 40.7095 43.2935 40.5612 43.2194C40.2645 43.034 40.1718 43.0154 42.7303 43.516C44.0837 43.7756 44.3247 43.7756 44.7882 43.5345C46.2343 42.793 45.9006 42.3851 43.6017 42.0884C42.6932 41.9772 41.8775 41.8103 41.7663 41.6991C41.655 41.5879 41.7106 41.5693 41.9516 41.625C42.1556 41.6991 43.5275 41.8289 45.0107 41.9587Z" fill="white"/>
<path d="M46.1231 28.9438C37.5021 33.2265 36.0746 34.0052 33.7942 35.581C32.0515 36.7861 32.07 36.9344 33.961 37.5462L34.888 37.8429L36.9274 36.8046C38.0583 36.2485 39.078 35.7108 39.1892 35.6181C39.2819 35.5439 39.5415 35.5069 39.7454 35.5439C39.9494 35.5996 42.6376 34.413 46.4011 32.5961L52.7046 29.5556L53.7799 28.295C54.3547 27.609 54.8367 26.9786 54.8367 26.8859C54.8367 26.5337 54.503 26.8118 53.5389 27.9612C52.5378 29.1663 52.4821 29.2034 48.181 31.2984C45.7893 32.4664 43.8241 33.3934 43.7871 33.3563C43.7314 33.3007 44.8624 32.7074 50.3872 29.8523C52.1299 28.9438 52.7788 28.3876 54.2434 26.5337C54.5586 26.1073 54.8367 25.6252 54.8367 25.4584C54.8181 25.2544 54.6513 25.3657 54.3176 25.8106C52.2226 28.4989 52.2597 28.4803 47.6062 30.872C45.2146 32.0956 41.3769 34.0793 39.078 35.2844C35.4442 37.1754 34.8695 37.435 34.4431 37.2681C34.1835 37.1754 33.6644 37.0271 33.2751 36.9715L32.5706 36.8417L34.7583 35.3956C36.297 34.3574 39.5971 32.6332 45.9006 29.5C50.8136 27.0713 54.8367 24.9949 54.8367 24.8837C54.8367 24.791 54.7811 24.6983 54.7069 24.7168C54.6142 24.7168 50.758 26.6264 46.1231 28.9438Z" fill="white"/>
<path d="M50.2018 31.8546C42.7118 34.7467 39.4488 36.026 39.4488 36.1187C39.4488 36.3041 40.8207 35.822 46.9573 33.5046C50.5355 32.1512 53.7614 30.9461 54.1507 30.8349C54.5215 30.7051 54.8367 30.4826 54.8367 30.3343C54.8367 30.186 54.8182 30.0748 54.7996 30.0933C54.7625 30.0933 52.7046 30.8905 50.2018 31.8546Z" fill="white"/>
<path d="M47.1427 33.8939C43.5831 35.2659 39.7454 36.7305 38.6145 37.1569C37.5021 37.5648 36.4083 38.0653 36.2043 38.2507C35.8521 38.603 35.8521 38.603 36.3341 39.085L36.8161 39.567L38.0398 39.1592C38.7257 38.9367 39.3746 38.7328 39.5044 38.7142C39.6342 38.6771 39.9679 38.5659 40.2831 38.4361C40.6168 38.2878 40.8578 38.2693 40.8949 38.3805C40.9505 38.5659 43.3792 37.9541 48.3478 36.5636C49.5158 36.2299 50.8321 35.8777 51.2585 35.7664C51.8889 35.6181 52.3524 35.2659 53.4462 34.1349C55.3372 32.2068 55.226 31.836 53.3164 33.7271L51.7776 35.2288L49.0152 35.9889C47.495 36.4153 46.2157 36.7119 46.1601 36.6749C46.1045 36.6192 46.1787 36.5265 46.327 36.4895C47.2354 36.1928 50.2388 35.2659 50.8692 35.099C51.3883 34.9692 51.963 34.5799 52.6119 33.9125C54.4103 32.1327 54.8181 31.354 53.9468 31.3911C53.7799 31.3911 50.7209 32.522 47.1427 33.8939ZM52.89 33.0411L51.4068 34.5243L44.918 36.5822C41.3584 37.7131 38.0583 38.7513 37.5948 38.8996C36.8718 39.1221 36.7234 39.1221 36.501 38.8811C36.3156 38.7142 36.2785 38.5474 36.3897 38.4547C36.501 38.362 39.6156 37.1384 43.3421 35.7293C47.0686 34.3203 50.9804 32.8186 52.0557 32.3737C53.131 31.9473 54.0765 31.5765 54.1878 31.5765C54.2805 31.5579 53.7058 32.2253 52.89 33.0411ZM45.9376 36.7119C45.9376 36.8603 43.8983 37.5091 43.5831 37.4721C43.4904 37.4721 43.9724 37.2681 44.6399 37.0271C45.3073 36.8046 45.8635 36.6007 45.9006 36.5822C45.9191 36.5822 45.9376 36.6378 45.9376 36.7119Z" fill="white"/>
<path d="M48.0326 37.3979C41.2657 38.6586 40.8763 38.7328 41.0247 38.9552C41.0617 39.0479 40.2645 39.2333 39.2263 39.4002C37.2055 39.7154 36.6122 40.0305 36.983 40.6053C37.1499 40.8648 37.428 40.9204 38.7257 40.8834C39.5786 40.8648 40.6539 40.8092 41.1174 40.7721C41.5809 40.735 41.8033 40.735 41.6365 40.7721C41.4511 40.8277 41.3028 40.9019 41.3028 40.9761C41.3028 41.1058 44.1949 41.0131 48.9596 40.735L51.24 40.6053L52.9086 39.1221C54.4659 37.7131 54.9665 37.1754 54.7996 37.0271C54.7625 36.99 53.9839 37.6204 53.0754 38.4361C52.1484 39.2704 51.24 39.9934 51.0361 40.0861C50.8321 40.1603 49.6271 40.2901 48.3478 40.3457C47.0686 40.4199 45.6967 40.5126 45.2888 40.5867C44.8809 40.6423 44.6028 40.6238 44.677 40.5496C44.7326 40.494 46.1045 40.3086 47.736 40.1418C50.9248 39.8451 51.24 39.7339 52.4265 38.5103C53.0198 37.8985 53.0383 37.8058 52.7603 37.6018C52.5192 37.4164 51.926 37.4535 49.7198 37.8058C48.218 38.0282 46.9388 38.1951 46.9017 38.1395C46.772 38.0097 47.1427 37.917 50.1091 37.3979C54.2434 36.6934 54.8367 36.5451 54.8367 36.3597C54.8367 36.1187 55.0962 36.0816 48.0326 37.3979ZM51.722 38.5844C50.7765 39.4373 50.6653 39.4929 49.4046 39.6041C48.663 39.6783 45.7523 39.9378 42.9157 40.1788C40.0791 40.4384 37.6504 40.6423 37.5021 40.6423C37.224 40.6423 37.0943 40.0861 37.3724 40.0676C37.4465 40.0676 40.8393 39.5485 44.918 38.8996C48.9967 38.2507 52.4265 37.7131 52.5192 37.7131C52.6305 37.6945 52.2597 38.1024 51.722 38.5844ZM46.6793 38.1209C46.6793 38.158 46.5495 38.2507 46.3826 38.3063C46.2343 38.362 46.1601 38.3434 46.2158 38.2322C46.327 38.0468 46.6793 37.9726 46.6793 38.1209ZM45.4742 38.4176C45.1775 38.4917 44.7141 38.5659 44.4545 38.5659C44.0466 38.5659 44.0466 38.5474 44.5472 38.4176C44.8624 38.3434 45.3073 38.2693 45.5669 38.2693C45.9747 38.2693 45.9747 38.2878 45.4742 38.4176ZM43.7685 38.7328C43.6388 38.7698 43.4163 38.7698 43.305 38.7328C43.1753 38.6771 43.268 38.6401 43.5275 38.6401C43.7871 38.6401 43.8798 38.6771 43.7685 38.7328Z" fill="white"/>
<path d="M31.9402 38.362C31.7363 38.399 31.2357 38.6586 30.8464 38.9367C27.9357 40.9575 29.9009 45.4812 33.4234 44.8323C34.165 44.684 35.2588 43.8126 35.6667 43.034C36.1116 42.1626 36.0004 40.8277 35.3886 39.8822C34.6841 38.7698 33.1824 38.1024 31.9402 38.362ZM34.165 39.1406C35.5184 39.9193 35.9819 41.8103 35.1476 43.0525C34.4431 44.0722 33.7942 44.443 32.6818 44.443C30.5683 44.443 29.2334 42.3665 30.0677 40.4013C30.7166 38.844 32.6077 38.2507 34.165 39.1406Z" fill="white"/>
<path d="M32.1998 40.3086C31.7363 40.4569 31.2914 41.1244 31.2914 41.6435C31.2914 41.7732 31.4582 42.107 31.6807 42.3851C32.1256 42.9412 33.1268 43.0525 33.5903 42.589C34.6285 41.5322 33.6088 39.8266 32.1998 40.3086ZM33.2936 40.8648C33.683 41.2541 33.5717 42.107 33.0712 42.3294C32.4408 42.6261 31.8475 42.2738 31.8475 41.6064C31.8475 40.9946 32.1442 40.6423 32.6818 40.6423C32.9043 40.6423 33.1639 40.735 33.2936 40.8648Z" fill="white"/>
</svg>
