<svg width="23" height="19" viewBox="0 0 23 19" fill="none" xmlns="http://www.w3.org/2000/svg">
<g clip-path="url(#clip0_68_243)">
<path fill-rule="evenodd" clip-rule="evenodd" d="M13.528 4.47549C12.5436 4.96116 11.6324 5.41077 10.9238 5.76219C4.0282 9.14643 0.357977 12.1176 0.0243198 14.612C-0.102787 15.5495 0.278535 16.8682 0.92996 17.6467C2.5188 19.5533 5.69648 19.4898 7.19 17.5196L7.74609 16.471C7.74609 16.1373 8.27041 16.2009 10.9397 16.9C13.4183 17.5355 13.8949 17.6149 14.3716 17.472C14.9912 17.2813 18.2324 15.5177 18.2324 15.3588C18.2324 15.3111 17.9306 15.2635 17.5651 15.2476C17.1838 15.2476 15.9604 15.1681 14.8323 15.0728C12.2425 14.8504 11.0827 14.8504 11.4004 15.0569C11.607 15.1999 11.607 15.2158 11.4004 15.2158C11.2733 15.2158 10.7331 15.1364 10.2088 15.0569C8.30218 14.7391 8.11152 14.7233 7.88909 14.9934C7.7302 15.184 7.7302 15.3111 7.8732 15.5495C8.0003 15.7401 8.01619 15.8513 7.90497 15.8513C7.80964 15.8513 7.63487 16.0897 7.50776 16.3757C7.17411 17.1701 6.15725 18.171 5.3946 18.457C3.72632 19.0926 1.93093 18.5206 0.961736 17.0589C0.485084 16.3757 0.437419 16.1691 0.437419 15.1522C0.437419 13.2774 1.04118 12.4512 4.01231 10.2109C6.3638 8.44734 7.49187 7.78002 10.6854 6.23885C12.0735 5.57434 15.0125 4.11381 17.4741 2.89047L18.0259 2.61629C20.5839 1.34521 22.7448 0.28069 22.856 0.248914C22.9672 0.217137 23.0149 0.105919 22.9831 0.0105884C22.9513 -0.10063 21.2036 0.677902 18.6932 1.9172C17.2146 2.65649 15.2583 3.62172 13.528 4.47549ZM11.8453 15.6289L15.0706 16.0738L14.5304 16.3598C14.4847 16.3826 14.4453 16.4041 14.4091 16.4238C14.36 16.4506 14.3168 16.4742 14.2718 16.4936C13.9411 16.6361 13.5139 16.5547 9.94672 15.8748C9.62593 15.8136 9.27974 15.7477 8.90594 15.6766C8.33396 15.5653 8.06386 15.4382 8.06386 15.2794C8.06386 15.1205 8.15919 15.0569 8.34985 15.1205C8.49285 15.1522 10.0658 15.3906 11.8453 15.6289ZM14.5781 15.3906C15.8492 15.4859 16.9137 15.5971 16.9455 15.6289C17.0567 15.7401 16.4847 16.1056 15.2295 16.7411L14.0379 17.329L12.5126 16.9635C11.6864 16.7729 10.892 16.5345 10.7649 16.471L10.7392 16.455C10.5079 16.3115 10.5071 16.3111 12.6238 16.7252C13.7837 16.9476 13.9902 16.9476 14.3874 16.7411C15.6267 16.1056 15.3408 15.756 13.3706 15.5018C12.5921 15.4065 11.893 15.2635 11.7976 15.1681C11.7023 15.0728 11.75 15.0569 11.9565 15.1046C12.1313 15.1681 13.307 15.2794 14.5781 15.3906Z" fill="white"/>
<path d="M15.5315 4.23684C8.1434 7.90707 6.91999 8.57438 4.96571 9.92489C3.4722 10.9576 3.48809 11.0847 5.10871 11.6091L5.90313 11.8633L7.65086 10.9735C8.62005 10.4969 9.49391 10.0361 9.58924 9.95667C9.66868 9.89312 9.89112 9.86134 10.0659 9.89312C10.2407 9.94078 12.5445 8.92392 15.7698 7.36686L21.1719 4.76116L22.0934 3.68075C22.586 3.09288 22.9991 2.55267 22.9991 2.47323C22.9991 2.17135 22.7131 2.40967 21.8869 3.39476C21.0289 4.4275 20.9812 4.45928 17.2951 6.25467C15.2455 7.25564 13.5613 8.05006 13.5296 8.01828C13.4819 7.97062 14.4511 7.46219 19.1858 5.01537C20.6794 4.23684 21.2355 3.76019 22.4906 2.17135C22.7607 1.80591 22.9991 1.39282 22.9991 1.24982C22.9832 1.07505 22.8402 1.17038 22.5542 1.5517C20.7588 3.85552 20.7906 3.83963 16.8026 5.88924C14.753 6.93787 11.4641 8.63793 9.49391 9.67068C6.37978 11.2913 5.88724 11.5137 5.52181 11.3707C5.29937 11.2913 4.85449 11.1642 4.52084 11.1165L3.91708 11.0053L5.79191 9.76601C7.11065 8.87626 9.93879 7.39864 15.3408 4.71349C19.5513 2.63211 22.9991 0.852609 22.9991 0.757279C22.9991 0.677837 22.9514 0.598395 22.8878 0.614283C22.8084 0.614283 19.5036 2.25079 15.5315 4.23684Z" fill="white"/>
<path d="M19.0268 6.73135C12.6079 9.20995 9.81152 10.3062 9.81152 10.3857C9.81152 10.5446 10.9873 10.1315 16.2463 8.14542C19.3128 6.98557 22.0774 5.95282 22.411 5.85749C22.7288 5.74627 22.9989 5.55561 22.9989 5.4285C22.9989 5.3014 22.983 5.20607 22.9671 5.22195C22.9354 5.22195 21.1717 5.90516 19.0268 6.73135Z" fill="white"/>
<path d="M16.4054 8.47896C13.3549 9.65471 10.066 10.9099 9.09677 11.2753C8.14346 11.6249 7.20605 12.0539 7.03127 12.2127C6.72939 12.5146 6.72939 12.5146 7.14249 12.9277L7.55559 13.3408L8.60423 12.9913C9.1921 12.8006 9.74819 12.6258 9.85941 12.61C9.97063 12.5782 10.2566 12.4828 10.5267 12.3716C10.8127 12.2445 11.0193 12.2286 11.051 12.324C11.0987 12.4828 13.1801 11.9585 17.4382 10.7669C18.4392 10.4809 19.5672 10.179 19.9327 10.0837C20.4729 9.95659 20.8701 9.65471 21.8075 8.68551C23.4281 7.03312 23.3328 6.71535 21.6963 8.33597L20.3775 9.62293L18.0102 10.2744C16.7073 10.6398 15.611 10.894 15.5634 10.8622C15.5157 10.8146 15.5792 10.7351 15.7063 10.7033C16.4849 10.4491 19.0588 9.65471 19.599 9.51171C20.0439 9.40049 20.5364 9.06684 21.0925 8.49485C22.6337 6.96957 22.9832 6.30225 22.2365 6.33403C22.0935 6.33403 19.4719 7.30322 16.4054 8.47896ZM21.3308 7.7481L20.0598 9.01917L14.4988 10.7828C11.4483 11.752 8.62012 12.6417 8.22291 12.7688C7.60326 12.9595 7.47615 12.9595 7.28549 12.7529C7.12661 12.61 7.09483 12.467 7.19016 12.3875C7.28549 12.3081 9.95474 11.2594 13.1483 10.0519C16.3419 8.8444 19.6943 7.55744 20.6159 7.17611C21.5374 6.81068 22.3477 6.49291 22.443 6.49291C22.5225 6.47702 22.0299 7.04901 21.3308 7.7481ZM15.3727 10.894C15.3727 11.0211 13.625 11.5772 13.3549 11.5454C13.2754 11.5454 13.6885 11.3707 14.2605 11.1641C14.8325 10.9734 15.3091 10.7987 15.3409 10.7828C15.3568 10.7828 15.3727 10.8305 15.3727 10.894Z" fill="white"/>
<path d="M17.1679 11.482C11.3686 12.5624 11.035 12.6259 11.1621 12.8166C11.1938 12.896 10.5106 13.0549 9.62089 13.1979C7.88905 13.468 7.38063 13.7381 7.69839 14.2307C7.84139 14.4531 8.07972 14.5008 9.1919 14.469C9.92277 14.4531 10.8443 14.4054 11.2415 14.3737C11.6387 14.3419 11.8294 14.3419 11.6864 14.3737C11.5275 14.4213 11.4004 14.4849 11.4004 14.5484C11.4004 14.6596 13.879 14.5802 17.9623 14.3419L19.9166 14.2307L21.3465 12.9596C22.6812 11.7521 23.1102 11.2913 22.9672 11.1642C22.9354 11.1324 22.2681 11.6726 21.4895 12.3717C20.6951 13.0867 19.9166 13.7063 19.7418 13.7858C19.567 13.8493 18.5343 13.9606 17.438 14.0082C16.3417 14.0718 15.1659 14.1512 14.8164 14.2148C14.4669 14.2624 14.2285 14.2465 14.2921 14.183C14.3398 14.1353 15.5155 13.9764 16.9137 13.8334C19.6465 13.5792 19.9166 13.4839 20.9334 12.4353C21.4419 11.9109 21.4578 11.8315 21.2194 11.6567C21.0129 11.4978 20.5045 11.5296 18.6137 11.8315C17.3268 12.0222 16.2305 12.1652 16.1987 12.1175C16.0875 12.0063 16.4052 11.9268 18.9474 11.482C22.4905 10.8782 22.9989 10.7511 22.9989 10.5922C22.9989 10.3857 23.2214 10.3539 17.1679 11.482ZM20.3297 12.4988C19.5194 13.2297 19.424 13.2773 18.3436 13.3727C17.7081 13.4362 15.2136 13.6587 12.7827 13.8652C10.3518 14.0877 8.27038 14.2624 8.14327 14.2624C7.90494 14.2624 7.79372 13.7858 8.03205 13.7699C8.0956 13.7699 11.0032 13.325 14.4986 12.7689C17.9941 12.2128 20.9334 11.7521 21.0129 11.7521C21.1082 11.7362 20.7904 12.0857 20.3297 12.4988ZM16.008 12.1016C16.008 12.1334 15.8968 12.2128 15.7538 12.2605C15.6267 12.3082 15.5632 12.2923 15.6108 12.1969C15.7062 12.0381 16.008 11.9745 16.008 12.1016ZM14.9753 12.3558C14.7211 12.4194 14.3239 12.4829 14.1014 12.4829C13.7519 12.4829 13.7519 12.467 14.1809 12.3558C14.451 12.2923 14.8323 12.2287 15.0547 12.2287C15.4043 12.2287 15.4043 12.2446 14.9753 12.3558ZM13.5136 12.6259C13.4023 12.6577 13.2117 12.6577 13.1163 12.6259C13.0051 12.5783 13.0846 12.5465 13.307 12.5465C13.5294 12.5465 13.6089 12.5783 13.5136 12.6259Z" fill="white"/>
<path d="M3.37691 12.3081C3.20214 12.3399 2.77315 12.5623 2.43949 12.8006C-0.0549856 14.5325 1.62919 18.4093 4.64798 17.8532C5.28352 17.7261 6.22094 16.9793 6.57048 16.312C6.9518 15.5652 6.85647 14.4213 6.33215 13.611C5.72839 12.6576 4.44143 12.0857 3.37691 12.3081ZM5.28352 12.9754C6.44337 13.6427 6.84058 15.2633 6.1256 16.3279C5.52185 17.2017 4.96575 17.5195 4.01245 17.5195C2.20117 17.5195 1.0572 15.74 1.77218 14.0558C2.32828 12.7212 3.94889 12.2128 5.28352 12.9754Z" fill="white"/>
<path d="M3.59909 13.9765C3.20188 14.1036 2.82056 14.6756 2.82056 15.1204C2.82056 15.2317 2.96355 15.5176 3.15421 15.756C3.53554 16.2326 4.39351 16.328 4.79072 15.9307C5.68047 15.0251 4.80661 13.5634 3.59909 13.9765ZM4.53651 14.4531C4.87016 14.7868 4.77483 15.5176 4.34584 15.7083C3.80564 15.9625 3.29721 15.6606 3.29721 15.0887C3.29721 14.5643 3.55142 14.2625 4.01219 14.2625C4.20285 14.2625 4.42529 14.3419 4.53651 14.4531Z" fill="white"/>
</g>
<defs>
<clipPath id="clip0_68_243">
<rect width="23" height="19" fill="white"/>
</clipPath>
</defs>
</svg>
