<svg width="212" height="134" viewBox="0 0 212 134" fill="none" xmlns="http://www.w3.org/2000/svg">
<path d="M99 17L97.2247 11.6742C97.0751 11.2253 96.8938 10.7876 96.6822 10.3644L96.5 10L96 13.5L95.5 17L95 22.5V27.5V32.5V38L95.5 44.5L96 50L96.4169 54.1693C96.4722 54.7221 96.5735 55.2694 96.7197 55.8054L98 60.5L100 67L91.2538 64.238C90.752 64.0796 90.2636 63.8818 89.793 63.6465L83.5 60.5L77 57L73 54.5L65.5 50L59 45.5L56 43.5L50.5 39.5L45.5 35.5L40.5 31.5L26 18.5L46.5 43L11 23.5L32.5 41L47.5 53L65 68L69 72L69.9148 72.9148C70.3043 73.3043 70.6609 73.7253 70.981 74.1735L73 77L82 92.5L72 94L59 95.5L44.5 97L32.5 98L39 101.5L46 104.5L56.5 108.5L65.5 111.5L73.5 114L80.5 116L90.5 118L100 119L106.5 119.5L111 122L116 124L121.213 125.303C121.737 125.434 122.27 125.523 122.808 125.567L128 126H133.5L139.5 125.5L144.5 124.5L150.7 122.847C151.563 122.617 152.391 122.272 153.162 121.822L158 119L162.5 115.5L166.497 111.503C166.832 111.168 167.142 110.81 167.426 110.431L170 107L174.5 100.5L177.5 95L180.5 89L183 82.5L185 76L186.5 70.5L187.5 66.5L188.5 64L190.5 60.5L191.367 59.0556C191.787 58.3545 192.292 57.7077 192.87 57.1295L195.5 54.5L203 48.5L195 49H193C192.342 49 191.694 48.8469 191.106 48.5528L191 48.5L189.5 47.5L187 46L183.5 44L181.687 42.9123C181.23 42.6379 180.751 42.4005 180.256 42.2024L178.5 41.5L177.694 41.2986C176.901 41.1003 176.087 41 175.269 41H174.5H172H170.389C169.799 41 169.21 41.0724 168.637 41.2157C167.884 41.404 167.166 41.7125 166.511 42.1294L163.402 44.1079C162.474 44.6986 161.649 45.4384 160.962 46.2976L158 50L154.175 55.9493C153.727 56.6471 153.193 57.2863 152.587 57.8523L146.945 63.1184C146.317 63.7037 145.618 64.2059 144.862 64.6126L139.5 67.5L134.5 64L127.617 58.9522C127.206 58.6512 126.819 58.3192 126.459 57.9593L121.5 53L115.5 46L110 38L105 29.5L101.424 23.2414C101.142 22.748 100.902 22.2315 100.708 21.6975L99 17Z" stroke="black" stroke-width="10"/>
</svg>
