<svg width="18" height="18" viewBox="0 0 18 18" fill="none" xmlns="http://www.w3.org/2000/svg">
<path d="M17.0786 7.11046L15.8152 6.89613C15.6836 6.47123 15.5144 6.06138 15.3076 5.67032L16.0521 4.62876C16.368 4.18506 16.3191 3.57967 15.9318 3.19613L14.8113 2.07561C14.6007 1.86504 14.3224 1.74847 14.0254 1.74847C13.7923 1.74847 13.5704 1.81992 13.3824 1.95528L12.3371 2.69979C11.931 2.48546 11.5061 2.30874 11.0661 2.17713L10.8556 0.928759C10.7653 0.391057 10.3028 0 9.75761 0H8.17458C7.62936 0 7.16686 0.391057 7.07662 0.928759L6.85853 2.20721C6.43739 2.33882 6.02753 2.51179 5.63648 2.72235L4.60243 1.97784C4.41443 1.84248 4.18882 1.77103 3.95569 1.77103C3.65863 1.77103 3.37662 1.8876 3.16981 2.09817L2.04553 3.2187C1.66199 3.60223 1.60935 4.20762 1.9252 4.65132L2.67723 5.70792C2.47042 6.10274 2.30498 6.51259 2.17713 6.93749L0.928759 7.14806C0.391056 7.23831 0 7.7008 0 8.24603V9.82905C0 10.3743 0.391056 10.8368 0.928759 10.927L2.20721 11.1451C2.33882 11.5662 2.51179 11.9761 2.72235 12.3672L1.9816 13.3974C1.66575 13.8411 1.71463 14.4465 2.10193 14.8301L3.22246 15.9506C3.43302 16.1612 3.71128 16.2777 4.00833 16.2777C4.24146 16.2777 4.46331 16.2063 4.65132 16.0709L5.70792 15.3189C6.0877 15.5182 6.48627 15.6799 6.89613 15.8077L7.1067 17.0711C7.19694 17.6088 7.65944 17.9999 8.20467 17.9999H9.79145C10.3367 17.9999 10.7992 17.6088 10.8894 17.0711L11.1037 15.8077C11.5286 15.6761 11.9385 15.5069 12.3296 15.3001L13.3711 16.0446C13.5591 16.18 13.7847 16.2514 14.0179 16.2514C14.3149 16.2514 14.5932 16.1348 14.8037 15.9243L15.9243 14.8037C16.3078 14.4202 16.3604 13.8148 16.0446 13.3711L15.3001 12.3258C15.5069 11.931 15.6799 11.5211 15.8077 11.1L17.0711 10.8894C17.6088 10.7992 17.9999 10.3367 17.9999 9.79145V8.20843C18.0074 7.6632 17.6163 7.2007 17.0786 7.11046ZM16.9922 9.79145C16.9922 9.84033 16.9583 9.8817 16.9094 9.88922L15.3302 10.1524C15.1309 10.1863 14.973 10.3329 14.9241 10.5247C14.7812 11.0774 14.5631 11.6076 14.2698 12.1002C14.1683 12.2732 14.1758 12.4875 14.2924 12.6529L15.2211 13.9615C15.2474 13.9991 15.2437 14.0555 15.2098 14.0893L14.0893 15.2098C14.063 15.2362 14.0367 15.2399 14.0179 15.2399C13.9953 15.2399 13.9765 15.2324 13.9615 15.2211L12.6567 14.2924C12.495 14.1758 12.2769 14.1683 12.1039 14.2698C11.6114 14.5631 11.0812 14.7812 10.5284 14.9241C10.3329 14.973 10.1863 15.1346 10.1562 15.3302L9.88922 16.9094C9.8817 16.9583 9.84033 16.9922 9.79145 16.9922H8.20843C8.15954 16.9922 8.11818 16.9583 8.11066 16.9094L7.84745 15.3302C7.81361 15.1309 7.66696 14.973 7.47519 14.9241C6.93749 14.7849 6.41859 14.5706 5.93353 14.2924C5.85457 14.2472 5.76432 14.2247 5.67784 14.2247C5.57631 14.2247 5.47103 14.2548 5.38455 14.3187L4.06849 15.255C4.04969 15.2662 4.03089 15.2738 4.01209 15.2738C3.99705 15.2738 3.96697 15.27 3.94065 15.2437L2.82012 14.1232C2.78628 14.0893 2.78252 14.0367 2.80884 13.9953L3.73384 12.6981C3.8504 12.5326 3.85792 12.3145 3.7564 12.1416C3.46311 11.6527 3.2375 11.1225 3.09461 10.5698C3.04197 10.378 2.88404 10.2314 2.68851 10.1975L1.09797 9.92682C1.04908 9.9193 1.01524 9.87794 1.01524 9.82905V8.24603C1.01524 8.19715 1.04908 8.15578 1.09797 8.14826L2.66595 7.88505C2.86524 7.85121 3.02693 7.70456 3.07581 7.50904C3.21494 6.95629 3.42926 6.42235 3.7188 5.92977C3.82032 5.7568 3.80904 5.54247 3.69248 5.38079L2.7562 4.06473C2.72988 4.02713 2.73364 3.97073 2.76748 3.93689L3.888 2.81636C3.91432 2.79004 3.94065 2.78628 3.95945 2.78628C3.98201 2.78628 4.00081 2.7938 4.01585 2.80508L5.3131 3.73008C5.47855 3.84664 5.69664 3.85416 5.86961 3.75264C6.35843 3.45935 6.88861 3.23374 7.44135 3.09085C7.63312 3.03821 7.77977 2.88028 7.81361 2.68475L8.08434 1.09421C8.09186 1.04532 8.13322 1.01148 8.1821 1.01148H9.76513C9.81401 1.01148 9.85537 1.04532 9.86289 1.09421L10.1261 2.66219C10.1599 2.86148 10.3066 3.02317 10.5021 3.07205C11.0699 3.21494 11.6114 3.43679 12.1152 3.73384C12.2882 3.83536 12.5025 3.82784 12.668 3.71128L13.9652 2.77876C13.984 2.76748 14.0028 2.75996 14.0216 2.75996C14.0367 2.75996 14.0668 2.76372 14.0931 2.79004L15.2136 3.91056C15.2474 3.94441 15.2512 3.99705 15.2249 4.03841L14.2961 5.34319C14.1796 5.50487 14.172 5.72296 14.2736 5.89593C14.5669 6.38851 14.7849 6.91869 14.9278 7.47144C14.9767 7.66696 15.1384 7.81361 15.3339 7.84369L16.9132 8.11066C16.9621 8.11818 16.9959 8.15954 16.9959 8.20843V9.79145H16.9922V9.79145Z" fill="white"/>
<path d="M9.00192 5.11365C6.85863 5.11365 5.11768 6.8546 5.11768 8.99789C5.11768 11.1412 6.85863 12.8821 9.00192 12.8821C11.1452 12.8821 12.8862 11.1412 12.8862 8.99789C12.8862 6.8546 11.1452 5.11365 9.00192 5.11365ZM9.00192 11.8669C7.41889 11.8669 6.13292 10.5809 6.13292 8.99789C6.13292 7.41486 7.41889 6.12889 9.00192 6.12889C10.5849 6.12889 11.8709 7.41486 11.8709 8.99789C11.8709 10.5809 10.5849 11.8669 9.00192 11.8669Z" fill="white"/>
</svg>
